<svg width="420" height="96" viewBox="0 0 420 96" fill="none" xmlns="http://www.w3.org/2000/svg" role="img" aria-label="Margos logo">
  <defs>
    <linearGradient id="mgBg2" x1="16" y1="16" x2="80" y2="80" gradientUnits="userSpaceOnUse">
      <stop offset="0" stop-color="#4f46e5"/>
      <stop offset="1" stop-color="#7c3aed"/>
    </linearGradient>
  </defs>

  <!-- mark -->
  <g transform="translate(16,16)">
    <rect width="64" height="64" rx="15" fill="url(#mgBg2)"/>
    <g stroke="#ffffff" stroke-opacity="0.45" stroke-width="1.6">
      <line x1="32" y1="32" x2="49" y2="32"/>
      <line x1="32" y1="32" x2="40.5" y2="46.7"/>
      <line x1="32" y1="32" x2="23.5" y2="46.7"/>
      <line x1="32" y1="32" x2="15" y2="32"/>
      <line x1="32" y1="32" x2="23.5" y2="17.3"/>
      <line x1="32" y1="32" x2="40.5" y2="17.3"/>
    </g>
    <g fill="#ffffff">
      <circle cx="49" cy="32" r="3.4"/>
      <circle cx="40.5" cy="46.7" r="3.4"/>
      <circle cx="23.5" cy="46.7" r="3.4"/>
      <circle cx="15" cy="32" r="3.4"/>
      <circle cx="23.5" cy="17.3" r="3.4"/>
      <circle cx="40.5" cy="17.3" r="3.4"/>
    </g>
    <circle cx="32" cy="32" r="6" fill="#22d3ee"/>
    <circle cx="32" cy="32" r="6" fill="none" stroke="#ffffff" stroke-opacity="0.9" stroke-width="1.4"/>
  </g>

  <!-- wordmark -->
  <text x="98" y="50" font-family="'Segoe UI', 'Helvetica Neue', Arial, sans-serif" font-size="40" font-weight="700" fill="#1e1b4b" letter-spacing="-0.5">MARGoS</text>
  <text x="100" y="74" font-family="'Segoe UI', 'Helvetica Neue', Arial, sans-serif" font-size="14.5" font-weight="500" fill="#6b7280" letter-spacing="0.2">Reproducible MARL experiment workflows</text>
</svg>
